<svg width="60" height="61" viewBox="0 0 60 61" fill="none" xmlns="http://www.w3.org/2000/svg">
<g clip-path="url(#clip0_82_3786)">
<path d="M57.15 17.6375H54.2812V11.9188H51.4313V9.06875H48.5625V6.21875H42.8625V3.35H37.1437V0.5H22.8562V3.35H17.1375V6.21875H11.4188V9.06875H8.56875V11.9188H5.71875V17.6375H2.85V23.3562H0V37.6437H2.85V43.3625H5.71875V49.0625H8.56875V51.9313H11.4188V54.7812H17.1375V57.65H22.8562V60.5H37.1437V57.65H42.8625V54.7812H48.5625V51.9313H51.4313V49.0625H54.2812V43.3625H57.15V37.6437H60V23.3562H57.15V17.6375ZM37.1437 49.0625H34.2938V51.9313H25.7062V49.0625H22.8562V40.4938H25.7062V37.6437H34.2938V40.4938H37.1437V49.0625ZM39.9938 26.2062H37.1437V31.925H34.2938V34.7938H25.7062V31.925H22.8562V26.2062H20.0063V11.9188H22.8562V9.06875H37.1437V11.9188H39.9938V26.2062Z" fill="#DD1A21"/>
<path d="M37.1439 14.7871H34.2939V23.3559H37.1439V14.7871Z" fill="#DD1A21"/>
<path d="M34.2936 11.9189H31.4248V14.7877H34.2936V11.9189Z" fill="#DD1A21"/>
</g>
<defs>
<clipPath id="clip0_82_3786">
<rect width="60" height="60" fill="white" transform="translate(0 0.5)"/>
</clipPath>
</defs>
</svg>
